<?xml version="1.0" encoding="UTF-8"?>
<svg xmlns="http://www.w3.org/2000/svg" xmlns:xlink="http://www.w3.org/1999/xlink" width="30px" height="30px" viewBox="0 0 30 30" version="1.1">
<g id="surface1">
<path style=" stroke:none;fill-rule:nonzero;fill:rgb(0%,0%,0%);fill-opacity:1;" d="M 15.679688 9.265625 C 14.757812 9.796875 13.480469 10.539062 11.84375 11.492188 C 10.207031 12.441406 8.929688 13.1875 8.007812 13.730469 C 6.875 13.375 5.925781 12.734375 5.164062 11.808594 L 5.003906 11.910156 C 4.886719 11.980469 4.757812 11.996094 4.621094 11.964844 C 4.484375 11.929688 4.378906 11.851562 4.300781 11.734375 L 3.816406 10.890625 C 3.746094 10.773438 3.730469 10.640625 3.769531 10.492188 C 3.808594 10.34375 3.886719 10.230469 4.007812 10.152344 L 4.167969 10.0625 C 3.648438 8.703125 3.636719 7.324219 4.128906 5.917969 C 4.625 4.515625 5.511719 3.441406 6.792969 2.703125 C 8.09375 1.953125 9.460938 1.714844 10.898438 1.980469 C 12.335938 2.246094 13.511719 2.945312 14.429688 4.078125 L 14.59375 3.976562 C 14.730469 3.90625 14.867188 3.894531 15.003906 3.9375 C 15.140625 3.980469 15.246094 4.0625 15.324219 4.183594 L 15.796875 5.023438 C 15.863281 5.140625 15.878906 5.269531 15.847656 5.410156 C 15.8125 5.546875 15.738281 5.65625 15.617188 5.734375 L 15.429688 5.835938 C 15.839844 6.929688 15.921875 8.074219 15.679688 9.265625 Z M 19.386719 25.953125 C 19.75 26.652344 20.203125 27.1875 20.742188 27.5625 C 21.285156 27.9375 21.871094 28.125 22.496094 28.125 C 23.589844 28.125 24.492188 27.761719 25.203125 27.039062 C 25.910156 26.3125 26.257812 25.414062 26.25 24.339844 C 26.25 23.996094 26.222656 23.652344 26.167969 23.308594 C 26.117188 22.960938 26.058594 22.671875 26 22.433594 C 25.941406 22.199219 25.851562 21.929688 25.730469 21.628906 C 25.605469 21.328125 25.515625 21.117188 25.457031 20.992188 C 25.398438 20.871094 25.300781 20.679688 25.164062 20.417969 C 25.027344 20.15625 24.953125 20.011719 24.945312 19.980469 C 24.730469 19.566406 24.507812 19.285156 24.277344 19.140625 C 24.046875 18.992188 23.859375 18.957031 23.714844 19.035156 C 23.617188 19.085938 23.546875 19.179688 23.507812 19.316406 C 23.46875 19.453125 23.472656 19.632812 23.523438 19.855469 C 23.570312 20.078125 23.664062 20.3125 23.800781 20.558594 C 24.085938 21.050781 24.367188 21.699219 24.644531 22.5 C 24.921875 23.304688 25.0625 23.957031 25.0625 24.460938 C 25.0625 25.101562 24.796875 25.65625 24.261719 26.128906 C 23.730469 26.601562 23.117188 26.839844 22.421875 26.839844 C 21.855469 26.839844 21.25 26.308594 20.605469 25.242188 L 20.722656 25.167969 C 20.984375 25.011719 21.179688 24.867188 21.308594 24.734375 C 21.433594 24.601562 21.511719 24.425781 21.542969 24.207031 C 21.574219 23.992188 21.511719 23.746094 21.367188 23.46875 L 15.824219 10.683594 L 13.433594 12.074219 L 14.652344 14.1875 C 14.710938 14.285156 14.722656 14.398438 14.6875 14.519531 C 14.652344 14.644531 14.585938 14.734375 14.488281 14.792969 L 13.917969 15.117188 L 13.347656 15.445312 C 13.238281 15.511719 13.128906 15.53125 13.015625 15.496094 C 12.902344 15.460938 12.8125 15.390625 12.746094 15.28125 L 11.542969 13.183594 L 9.152344 14.570312 L 17.363281 25.804688 C 17.636719 26.167969 17.917969 26.367188 18.199219 26.402344 C 18.484375 26.4375 18.800781 26.335938 19.152344 26.101562 Z M 19.386719 25.953125 "/>
</g>
</svg>
